<svg xmlns="http://www.w3.org/2000/svg" viewBox="0 0 224.88 149.22"><defs><style>.cls-1,.cls-2{fill:#34aec3;}.cls-1,.cls-3,.cls-5{fill-rule:evenodd;}.cls-3,.cls-4{fill:#34b5d9;}.cls-5,.cls-6{fill:#00729e;}</style></defs><g id="Слой_2" data-name="Слой 2"><g id="Слой_1-2" data-name="Слой 1"><path class="cls-1" d="M.05,144.66a14.45,14.45,0,0,1,4.47,4.47H6.64c-1.21-2.76-3.56-4.89-6.59-6.59Z"/><path class="cls-1" d="M30.06,127.29c-6.18-4.4-14.49-7.48-30-9.92v4.21c12.21,2.09,19.6,4.89,24.87,8.89,4.93,4.09,7.75,9.39,2.68,18.66h4.21c7.32-11.43,3.85-17.29-1.75-21.84"/><path class="cls-1" d="M68.41,122.22a22,22,0,0,0-9.48-12c-4.39-3-10-5.34-18.57-7.77S20.07,97.35.05,92.14v4.22c35.47,8.11,45.34,10,54.44,16.47,4.2,3,7.79,6.44,9.21,11.41,1.16,5.14.17,11.8-10.93,24.84H57c12.4-14.92,12.68-21.5,11.42-26.91M48.92,107.28l.25.11-.25-.11"/><path class="cls-1" d="M.05,67C31.44,81.75,45.63,85.79,56,89.21c9.9,3.06,16,5.52,20.82,8.64,5.48,2.5,9.56,7.76,14,12.92,3.56,6.13,7.55,12.16-8.69,38.32h2.11c16.16-27.12,11.74-33,8-39.14-4.76-5.12-8.9-10.53-14.45-13-4.91-3.13-11-5.6-20.95-8.7C46.34,84.74,32,80.6,0,64.86Z"/><path class="cls-1" d="M.05,31.37c29.43,26,51.12,37.79,63,42.37,12.49,4.9,18.23,6.92,24.25,11.17,5.38,4.07,11.09,8.84,19.81,14.74,4.07,3,8.32,6,10.88,11.89,2.52,6.21,3.36,15.34-.14,37.59H120c2.5-22.53,2.06-31.79-.74-38.06-2.69-6-7.74-8.94-11.63-12C99,93.34,93.41,88.3,87.6,84.2c-6-4.36-11.79-6.37-24.48-11.45-12-4.62-34.29-17.55-63-43.52Z"/><path class="cls-1" d="M.05,12.49c10.36,9.72,23.5,22.82,34.82,32.32A162.23,162.23,0,0,0,63.11,64.66C77.82,71.92,84.39,73.75,90.82,79c6.36,4.82,11.86,10.8,21.66,16.5,4.38,3.21,10.51,5.68,14.54,12,4.31,6.54,6.52,16.91,9.64,41.63h2.16c-3.89-24.89-6.34-35.43-10.84-42-4.19-6.35-10.42-8.75-14.84-12-9.91-5.69-15.38-11.81-21.82-16.73C84.78,73,78.11,71.24,63.06,63.58c-7.21-4-17.12-10.67-28.69-20.88C23,32.84,9.87,19.48.06,10.39Z"/><path class="cls-1" d="M152.43,107.36c-7.33-9.3-13.48-12.14-18.74-15.53-11-5.25-16.83-10.73-23.33-17.25S97.89,63.2,86.52,57.66C81,54.2,74.59,50.53,66.36,40.56,58.08,31.12,48,15.38,33.77,0H23.26c13.17,12.37,24.8,28.22,34.2,38.42C66.93,49.22,74.17,54.33,80.09,58c12.25,6.29,18.41,10,24.92,16.65,6.53,6.29,12.32,12.45,23,17.61,5,3.38,11.17,5.54,17.53,14,6.65,8.11,13.52,22.49,26.82,42.9h10.51c-14.25-17.62-22.94-32.93-30.44-41.77"/><path class="cls-1" d="M48.44,0C62.23,19.36,69.8,34.14,76.76,42.53c6.71,8.77,12.81,11.13,17.92,14.52,10.77,5.16,16.58,11.09,23.09,17.49,6.5,6.62,12.58,10.78,24.44,16.71a84,84,0,0,1,21.61,18.58c9,9.91,20,25.78,33.74,39.3h2.12c-13.45-12.92-24.82-28.79-34-38.85-9.23-10.62-16.27-15.43-22.1-19-12.05-6.11-18.16-10.07-24.66-16.69C112.4,68.24,106.59,62.2,95.86,57c-5.07-3.38-11.18-5.62-17.71-14.22C71.36,34.58,64.15,20,50.6.09H48.48"/><path class="cls-1" d="M190.67,117.24c-11.85-11.89-22.61-21.29-30.16-26-16.1-9.68-23.29-11.19-30.16-17.33-6.83-5.47-12.24-12.29-22.67-17.91C103,52.59,96.4,50.61,91.35,43.78,85.9,36.86,82,25.08,73.64.06H67.32C77.54,23.89,82.18,36.5,87.93,43.73c5.35,7.27,11.8,9.15,16.57,12.56,10.48,5.43,16,12.17,22.7,17.94,6.7,6.34,13.46,8.49,28.05,16.82,6.92,4.29,16.34,12.19,27.55,23.83,11,11.2,23.86,26.13,33.61,34.27h6.32c-7.6-6.28-20.38-20.33-32.06-31.89"/><path class="cls-2" d="M161.82,76.33c-12.67-5.07-18.48-7.08-24.44-11.43-5.79-4.1-11.37-9.12-20-14.85-3.89-3-8.93-6-11.6-12-2.79-6.27-3.21-15.53-.67-38H100.9c-1.25,23.19-.39,32.69,2.79,39,3,6,8.37,8.89,12.4,12,8.94,5.72,14.51,11,20.43,15.23,6.07,4.56,12,6.56,25.16,12a154,154,0,0,1,25.85,14.9c10.79,7.54,24,18.55,37.31,30.8v-4.22C196,93.76,173.74,81,161.79,76.33"/><path class="cls-2" d="M143.19,56.19a108.34,108.34,0,0,1-16.26-13.35c-2.79-3-5.45-6.29-6-11.89-.43-5.79,1.3-13.88,9.31-30.91h-2.12c-7.77,17.56-9.3,25.75-8.69,31.6.7,5.63,3.52,8.92,6.42,11.89A128.94,128.94,0,0,0,142.58,57c5.4,3.51,10.77,5.52,21.75,9.25,11,4.06,27.91,9.68,60.5,30.47V94.6c-32.5-19.93-49.06-25.26-60-29.25C154,61.7,148.6,59.67,143.21,56.2"/><path class="cls-2" d="M181.36,49.14c-8.89-2.55-14.64-4.9-19.15-8A24.2,24.2,0,0,1,152.06,29c-1.54-5.6-1.74-12.3,11.79-28.94h-4.22c-14.53,18.49-13.72,25.22-11.85,31a27,27,0,0,0,10.89,12.42c4.61,3.07,10.45,5.45,19.63,8.12,9.44,2.81,22.23,5.91,46.53,13.68V61c-22.15-6.38-34.38-9.22-43.47-11.88"/><path class="cls-2" d="M176.43,0h-2.11C164,12.19,162.87,18.65,163.91,23.66c1.28,4.87,4.68,8.29,8.76,11.18,8.88,6.34,19,8.48,52.16,15.67V48.39c-31.77-5.49-40.44-9.61-49.91-14.83-7.39-5.67-15.59-12.43,1.51-33.56"/><path class="cls-2" d="M216.3,0H210c-.35,7.73,5.84,12,14.84,14.89V8.57c-4.23-2-7.38-4.75-8.53-8.53"/><path class="cls-3" d="M.05,136.27c7.36,2.67,12.53,6.5,12.86,12.86H15c.4-7.78-5.86-12-15-15v2.12"/><path class="cls-3" d="M42.87,119.69c-8.31-5.06-17.52-8.82-42.82-12.81v4.21c21.13,3.24,30.25,6.73,37.73,11.58,6.46,5.1,11.28,11.56.31,26.46H42.3c13.52-17.38,7.49-24.06.57-29.44"/><path class="cls-3" d="M84.69,114.28c-3.45-5.29-7.27-10-12.46-12.71-4.75-3.1-10.71-5.52-20.32-8.4C41.91,90.05,28.3,86.46.05,75.41v6.31c25.38,8.56,38.42,11.8,48,14.69,9.32,2.73,15.19,5.11,19.84,8.2,5,2.78,8.58,7.2,11.29,12.51,2.07,5.83,3.23,12.53-11.74,32h6.38c15.9-22.34,13.59-28.86,10.92-34.85"/><path class="cls-3" d="M111,114.93c-1.46-5.77-4.92-8.94-8.31-11.91-7.37-6-12.92-10.24-18.12-13.88-5.6-3.76-11.06-5.76-22.54-9.85C50.66,75,32.2,67.69.05,43.94v14.7C32.15,76.86,48.16,81.72,59,85.57c10.67,3.52,16,5.56,21.33,9,5.2,2.37,9.83,8.2,15.57,13.15,4.73,6.19,10.55,11.5-5.35,41.46h14.7c6.45-19.59,7.09-28.19,5.71-34.2"/><path class="cls-3" d="M122.27,109.62c-3.2-6.07-8.7-8.87-12.81-12-9.1-5.72-14.67-11.08-20.66-15.44-6.14-4.68-12.19-6.66-25.57-12.39A152,152,0,0,1,37,54.16C26.11,46.31,12.9,34.89.05,22.92v4.21c13.71,12.43,26.88,23.09,37.6,30.35a153.06,153.06,0,0,0,25.51,14.3C76.06,77.05,82,79.06,88,83.51c5.85,4.19,11.44,9.33,20.22,15,4,3.06,9.18,6,12,12,3,6.29,3.64,15.68,1.78,38.55h4.21c.52-23.51-.56-33.15-4-39.51"/><path class="cls-3" d="M.05,6.19c8.66,7.74,21.6,21.46,33.2,32.05C45,49.19,55.43,57,62.87,61.32c15.68,8.57,22.6,10.19,29.28,15.85,6.62,5.1,12.06,11.5,22.18,17.18,4.52,3.31,10.94,5.57,15.45,12,4.85,6.68,7.77,17.58,13.21,42.74h2.12c-6.23-25.26-9.4-36.35-14.42-43.08C126,99.46,119.51,97.28,115,93.94,104.75,88.25,99.35,81.7,92.64,76.51c-6.77-5.8-13.85-7.32-29.88-16.4-7.57-4.51-18.26-13-30.12-24.3C21,24.81,8.09,11.05.05,4Z"/><path class="cls-3" d="M157,108.29c-8-9.82-14.34-13.27-19.77-16.71a76.58,76.58,0,0,1-23.68-17c-6.49-6.55-12.4-11.87-23.45-17.16C84.8,54,78.61,51,71.11,41.55c-7.67-9-16.7-24.42-31-41.51H35.82C50.11,16,59.82,31.62,67.93,40.91c8,9.81,14.32,13.24,19.75,16.68a76.1,76.1,0,0,1,23.67,17c6.5,6.55,12.41,11.85,23.46,17.14,5.32,3.41,11.51,6.43,19.06,15.9,7.69,9,16.74,24.44,31,41.49h4.22c-14.29-15.88-24-31.55-32.15-40.84"/><path class="cls-3" d="M52.63,0C65.91,20.48,72.82,34.85,79.41,43c6.35,8.42,12.48,10.57,17.5,14,10.68,5.17,16.45,11.34,23,17.64,6.52,6.59,12.69,10.33,25,16.62,5.94,3.67,13.19,8.8,22.67,19.57,9.41,10.21,21.06,26.06,34.21,38.39h2c-12.8-11.73-24.7-27.53-34.35-37.89-9.74-10.91-17.22-16.39-23.26-20.12-12.52-6.51-18.73-10-25.25-16.62-6.55-6.23-12.31-12.51-23-17.68-5-3.39-11.15-5.45-17.33-13.7-6.49-8-13-22.11-25.95-43.08H52.56"/><path class="cls-4" d="M161.76,84.44c-14.72-7.23-21.25-9.06-27.7-14.33-6.36-4.82-11.87-10.78-21.65-16.48-4.38-3.21-10.5-5.69-14.52-12-4.3-6.54-6.5-16.9-9.57-41.61H86.2C90.05,24.91,92.48,35.43,97,42c4.18,6.35,10.41,8.75,14.83,12,9.89,5.7,15.37,11.81,21.8,16.72,6.54,5.39,13.2,7.16,28.23,14.79,7.2,4,17.09,10.63,28.66,20.81,11.41,9.83,24.5,23.18,34.35,32.32v-2.12c-10.41-9.76-23.55-22.85-34.86-32.32a161.67,161.67,0,0,0-28.21-19.79"/><path class="cls-4" d="M162.66,70.72c-11.6-4.19-17.1-6.19-22.81-10-5.2-3.7-10.78-8-18.33-14-3.54-3-7.13-6.13-8.76-11.92-1.55-6-1.14-14.73,4.93-34.76h-8.41c-4.1,21.82-3.53,30.86-1.2,37,2.36,5.89,6.5,8.92,10.41,11.87,8.56,5.92,14.27,10.6,19.65,14.59C144,67.66,149.69,69.67,162,74.39c11.74,4.54,32.78,15.35,62.86,41.16v-8.42C192.93,82.85,174.05,75,162.66,70.68"/><path class="cls-4" d="M224.82,82V71.51c-27.27-10.13-40.72-13.59-50.57-16.64-9.52-2.82-15.45-5.23-20.16-8.32-5.12-2.72-8.86-7.34-12-12.65C139.64,28,137.76,21.35,153.39,0H138.65c-16,28-11.2,33.72-7.19,39.89,5,5.07,9.2,10.62,14.82,13,5,3.15,11,5.63,21.06,8.78,10.49,3.58,24.9,7.83,57.49,24.49V82Z"/><path class="cls-4" d="M166.09,38.81a21.89,21.89,0,0,1-9.44-11.93c-1.25-5.41-1-12,11.39-26.84h-2.12c-13,15.75-13,22.39-11.63,27.91A23,23,0,0,0,164.09,40c4.45,3,10.15,5.37,18.86,7.86,8.9,2.58,20.82,5.3,41.88,11V56.82c-19.94-5.16-31.51-7.75-40.19-10.25-8.52-2.42-14.16-4.75-18.55-7.76"/><path class="cls-4" d="M202.61,17c-4.54-3.83-7.08-8.77-3.1-17h-16.8c-13.43,17.3-7.45,24-.55,29.35,8.3,5,17.51,8.8,42.67,12.77V25.35c-10.62-1.94-17.42-4.59-22.22-8.34"/><path class="cls-4" d="M220.49,0h-2.12a14.5,14.5,0,0,0,6.46,6.45V4.33A14.23,14.23,0,0,1,220.49,0"/><path class="cls-5" d="M22.45,132c-4.83-3.77-11.68-6.43-22.4-8.38v4.22c15.11,3.7,24.86,8.74,21.25,21.25h4.22c4.06-8.27,1.5-13.24-3.07-17.09"/><path class="cls-5" d="M.05,102.7c29.66,5,38.58,9,47.7,14.16,7.26,5.59,14.71,12.36-1.27,32.27H48.6c17.2-21.22,8.93-28,1.53-33.66C40.63,110.25,32,106.12.05,100.58v2.12"/><path class="cls-5" d="M.05,73.33a526.32,526.32,0,0,0,53,18.84c9.7,2.93,15.68,5.35,20.46,8.45,5.26,2.63,9.14,7.5,12.85,12.77,2.89,6,5.6,12.46-10.48,35.74H78c16.2-24.25,13.07-30.57,10-36.63-4-5.24-7.92-10.23-13.26-12.82-4.81-3.11-10.81-5.54-20.58-8.51a471.92,471.92,0,0,1-54-20Z"/><path class="cls-5" d="M116.87,112.06c-2.38-5.89-6.52-8.92-10.44-11.87-8.58-5.93-14.29-10.61-19.67-14.61-5.86-4.16-11.55-6.17-23.85-10.9C51.17,70.14,30.09,59.26.05,33.45v8.41C31.92,66.19,50.82,74,62.23,78.39c11.61,4.2,17.11,6.21,22.83,10,5.2,3.7,10.77,8,18.35,14,3.54,3,7.14,6.12,8.78,11.91,1.57,6,1.17,14.74-4.87,34.8h8.41c4.06-21.84,3.48-30.89,1.14-37.07"/><path class="cls-5" d="M.05,16.68C11.46,27.49,24.66,40,35.81,48.78a155.42,155.42,0,0,0,27.39,18C77.36,73.35,83.68,75.26,90,80.29c6.2,4.63,11.74,10.35,21.29,16,4.27,3.16,10.17,5.77,13.87,12,4,6.47,5.7,16.53,7.33,40.83h2.12c-2.38-24.53-4.36-34.74-8.5-41.24-3.86-6.24-9.88-8.78-14.21-12-9.66-5.7-15.18-11.55-21.46-16.28-6.39-5.15-12.83-7-27.28-13.92A157.3,157.3,0,0,1,35.35,46.77c-11.23-9.15-24.41-22-35.3-32.24Z"/><path class="cls-5" d="M12.82,0C23.82,9.39,36.44,24.73,47,35.66,57.73,47.07,66.38,54.07,73,58.12c13.74,7.6,20.26,10.23,26.87,16.68,6.62,6,12.25,12.56,22.8,17.87,4.84,3.4,11.18,5.29,16.78,12.88,6,7.46,11.21,20.63,22.52,43.54H164c-11.79-22.43-17.33-35.86-23.43-43.45-5.74-7.75-12-9.66-16.9-13.06-10.56-5.27-16.21-11.83-22.8-17.86-6.58-6.49-13-9.34-26.42-16.61-6.42-4-14.73-10.54-25.21-21.83C38.9,25.53,26.4,10,14.89,0H12.82"/><path class="cls-5" d="M44.24,0C58.38,18.23,66.68,33.38,74,42.06c7.11,9.12,13.23,11.77,18.43,15.16,10.88,5.2,16.74,10.84,23.23,17.33s12.51,11.19,24,16.84A75.37,75.37,0,0,1,160.29,109c8.51,9.6,19,25.42,33,40.12h2.12c-13.93-14.1-24.7-30-33.43-39.72A79.3,79.3,0,0,0,140.9,91.35c-11.68-5.79-17.71-10.17-24.19-16.79-6.51-6.45-12.36-12.23-23.19-17.4-5.16-3.38-11.26-5.88-18.17-14.82-7.12-8.53-15-23.5-29-42.31H44.23"/><path class="cls-5" d="M58.93,0c12.19,22,18,35.65,24.25,43.35,5.87,7.91,12.11,9.86,17,13.25,10.58,5.24,16.27,11.71,22.84,17.81C129.58,80.94,136,84,149,91c6.3,3.87,14.32,10.08,24.56,21.26C183.7,122.93,196,138.55,208,149.09h2.12c-11.47-9.94-24-25.43-34.33-36.23C165.32,101.6,157,95,150.55,91c-13.4-7.3-19.84-10.14-26.42-16.63-6.59-6-12.26-12.57-22.83-17.85-4.87-3.39-11.17-5.3-16.89-13C78.32,35.94,72.8,22.52,61.05.06H58.93"/><path class="cls-6" d="M161.64,80.27c-13.61-6-19.73-7.93-25.92-12.71-6.06-4.45-11.63-9.91-20.88-15.62-4.16-3.12-9.79-5.86-13.15-12-3.56-6.4-4.85-16.16-5-39.94H94.57c.85,24,2.37,34,6.12,40.38,3.53,6.15,9.29,8.83,13.51,12,9.39,5.71,14.94,11.3,21.06,15.84,6.26,4.89,12.49,6.84,26.36,13.08a153.49,153.49,0,0,1,27,17.11c11,8.46,24.27,20.58,36.21,31.86v-2.12c-12.43-11.67-25.65-23.43-36.61-31.56a153.13,153.13,0,0,0-26.58-16.32"/><path class="cls-6" d="M163.53,68c-11.2-3.89-16.6-5.9-22.15-9.53a186.77,186.77,0,0,1-17.33-13.63c-3.18-3-6.32-6.22-7.38-11.92-1-5.93.12-14.33,7.32-32.9h-4.17c-6.48,19.56-7.12,28.15-5.76,34.17,1.44,5.76,4.89,8.94,8.27,11.9C129.69,52,135.24,56.33,140.43,60c5.6,3.75,11.06,5.75,22.53,9.84,11.31,4.3,29.74,11.56,61.92,35.27v-4.22C192.35,78.52,174.75,72.18,163.58,68"/><path class="cls-6" d="M178.32,51.55c-9.19-2.67-15-5-19.63-8.12A27.09,27.09,0,0,1,147.82,31c-1.87-5.76-2.67-12.49,11.85-31h-4.22c-15.32,20.37-13.81,27-11.56,32.93,2.94,5.3,6.61,9.83,11.65,12.58,4.68,3.09,10.59,5.48,20,8.26,9.73,3,23,6.31,49.3,15.62V65.18c-24.29-7.76-37.07-10.86-46.51-13.67"/><path class="cls-6" d="M161.34,24.81C160.19,19.68,161.19,13,172.24,0h-2.12c-11.73,13.83-12.62,20.64-11.34,25.88,1.57,5.07,5.31,8.56,9.55,11.5,9.39,6.73,18.93,8.31,56.5,17.33V52.63c-35.33-8.06-45.22-9.94-54.3-16.42-4.2-3-7.77-6.43-9.19-11.4"/><path class="cls-6" d="M207.9,0h-6.31c-3.06,7.25-.74,11.83,3.43,15.4,4.36,3.51,10.58,6,19.81,7.84V17C214,13.84,206.67,9.24,207.9.08"/><path class="cls-6" d="M222.57,0a14,14,0,0,0,2.25,2.3V.18L224.68,0Z"/></g></g></svg>