<svg id="Слой_1" data-name="Слой 1" xmlns="http://www.w3.org/2000/svg" viewBox="0 0 145.11 145.18"><defs><style>.cls-1{fill:#34aec3;}.cls-1,.cls-2,.cls-3{fill-rule:evenodd;}.cls-2{fill:#34b5d9;}.cls-3{fill:#00729e;}</style></defs><g id="Слой_2" data-name="Слой 2"><g id="Слой_1-2" data-name="Слой 1-2"><path class="cls-1" d="M.05,144.66a14.45,14.45,0,0,1,4.47,4.47H6.64c-1.21-2.76-3.56-4.89-6.59-6.59Z" transform="translate(0 -4)"/><path class="cls-1" d="M30.06,127.29c-6.18-4.4-14.49-7.48-30-9.92v4.21c12.21,2.09,19.6,4.89,24.87,8.89,4.93,4.09,7.75,9.39,2.68,18.66h4.21c7.32-11.43,3.85-17.29-1.75-21.84" transform="translate(0 -4)"/><path class="cls-1" d="M68.41,122.22a22,22,0,0,0-9.48-12c-4.39-3-10-5.34-18.57-7.77S20.07,97.35.05,92.14v4.22c35.47,8.11,45.34,10,54.44,16.47,4.2,3,7.79,6.44,9.21,11.41,1.16,5.14.17,11.8-10.93,24.84H57c12.4-14.92,12.68-21.5,11.42-26.91m-19.5-14.89.25.11-.25-.11" transform="translate(0 -4)"/><path class="cls-1" d="M.05,67C31.44,81.75,45.63,85.79,56,89.21c9.9,3.06,16,5.52,20.82,8.64,5.48,2.5,9.56,7.76,14,12.92,3.56,6.13,7.55,12.16-8.69,38.32h2.11c16.16-27.12,11.74-33,8-39.14-4.76-5.12-8.9-10.53-14.45-13-4.91-3.13-11-5.6-21-8.7C46.34,84.74,32,80.6,0,64.86Z" transform="translate(0 -4)"/><path class="cls-2" d="M.05,136.27c7.36,2.67,12.53,6.5,12.86,12.86H15c.4-7.78-5.86-12-15-15v2.12" transform="translate(0 -4)"/><path class="cls-2" d="M42.87,119.69c-8.31-5.06-17.52-8.82-42.82-12.81v4.21c21.13,3.24,30.25,6.73,37.73,11.58,6.46,5.1,11.28,11.56.31,26.46H42.3c13.52-17.38,7.49-24.06.57-29.44" transform="translate(0 -4)"/><path class="cls-2" d="M84.69,114.28c-3.45-5.29-7.27-10-12.46-12.71-4.75-3.1-10.71-5.52-20.32-8.4C41.91,90.05,28.3,86.46.05,75.41v6.31c25.38,8.56,38.42,11.8,48,14.69,9.32,2.73,15.19,5.11,19.84,8.2,5,2.78,8.58,7.2,11.29,12.51,2.07,5.83,3.23,12.53-11.74,32h6.38c15.9-22.34,13.59-28.86,10.92-34.85" transform="translate(0 -4)"/><path class="cls-3" d="M22.45,132c-4.83-3.77-11.68-6.43-22.4-8.38v4.22c15.11,3.7,24.86,8.74,21.25,21.25h4.22c4.06-8.27,1.5-13.24-3.07-17.09" transform="translate(0 -4)"/><path class="cls-3" d="M.05,102.7c29.66,5,38.58,9,47.7,14.16,7.26,5.59,14.71,12.36-1.27,32.27H48.6c17.2-21.22,8.93-28,1.53-33.66C40.63,110.25,32,106.12.05,100.58v2.12" transform="translate(0 -4)"/><path class="cls-3" d="M.05,73.33a526.32,526.32,0,0,0,53,18.84c9.7,2.93,15.68,5.35,20.46,8.45,5.26,2.63,9.14,7.5,12.85,12.77,2.89,6,5.6,12.46-10.48,35.74H78c16.2-24.25,13.07-30.57,10-36.63-4-5.24-7.92-10.23-13.26-12.82-4.81-3.11-10.81-5.54-20.58-8.51a471.92,471.92,0,0,1-54-20Z" transform="translate(0 -4)"/><path class="cls-1" d="M.05,31.37c29.43,26,51.12,37.79,63,42.37,12.49,4.9,18.23,6.92,24.25,11.17,5.38,4.07,11.09,8.84,19.81,14.74,4.07,3,8.32,6,10.88,11.89,2.52,6.21,3.36,15.34-.14,37.59H120c2.5-22.53,2.06-31.79-.74-38.06-2.69-6-7.74-8.94-11.63-12C99,93.34,93.41,88.3,87.6,84.2c-6-4.36-11.79-6.37-24.48-11.45-12-4.62-34.29-17.55-63-43.52Z" transform="translate(0 -4)"/><path class="cls-1" d="M.05,12.49c10.36,9.72,23.5,22.82,34.82,32.32A162.23,162.23,0,0,0,63.11,64.66C77.82,71.92,84.39,73.75,90.82,79c6.36,4.82,11.86,10.8,21.66,16.5,4.38,3.21,10.51,5.68,14.54,12,4.31,6.54,6.52,16.91,9.64,41.63h2.16c-3.89-24.89-6.34-35.43-10.84-42-4.19-6.35-10.42-8.75-14.84-12-9.91-5.69-15.38-11.81-21.82-16.73C84.78,73,78.11,71.24,63.06,63.58c-7.21-4-17.12-10.67-28.69-20.88C23,32.84,9.87,19.48.06,10.39Z" transform="translate(0 -4)"/><path class="cls-2" d="M111,114.93c-1.46-5.77-4.92-8.94-8.31-11.91-7.37-6-12.92-10.24-18.12-13.88C79,85.38,73.51,83.38,62,79.29,50.66,75,32.2,67.69.05,43.94v14.7c32.1,18.22,48.11,23.08,59,26.93,10.67,3.52,16,5.56,21.33,9,5.2,2.37,9.83,8.2,15.57,13.15,4.73,6.19,10.55,11.5-5.35,41.46h14.7C111.7,129.59,112.34,121,111,115" transform="translate(0 -4)"/><path class="cls-2" d="M122.27,109.62c-3.2-6.07-8.7-8.87-12.81-12-9.1-5.72-14.67-11.08-20.66-15.44-6.14-4.68-12.19-6.66-25.57-12.39A152,152,0,0,1,37,54.16C26.11,46.31,12.9,34.89.05,22.92v4.21c13.71,12.43,26.88,23.09,37.6,30.35a153.06,153.06,0,0,0,25.51,14.3C76.06,77.05,82,79.06,88,83.51c5.85,4.19,11.44,9.33,20.22,15,4,3.06,9.18,6,12,12,3,6.29,3.64,15.68,1.78,38.55h4.21c.52-23.51-.56-33.15-4-39.51" transform="translate(0 -4)"/><path class="cls-2" d="M.05,6.19c8.66,7.74,21.6,21.46,33.2,32.05C45,49.19,55.43,57,62.87,61.32c15.68,8.57,22.6,10.19,29.28,15.85,6.62,5.1,12.06,11.5,22.18,17.18,4.52,3.31,10.94,5.57,15.45,12,4.85,6.68,7.77,17.58,13.21,42.74h2.12c-6.23-25.26-9.4-36.35-14.42-43.08C126,99.46,119.51,97.28,115,93.94,104.75,88.25,99.35,81.7,92.64,76.51c-6.77-5.8-13.85-7.32-29.88-16.4-7.57-4.51-18.26-13-30.12-24.3C21,24.81,8.09,11.05.05,4Z" transform="translate(0 -4)"/><path class="cls-3" d="M116.87,112.06c-2.38-5.89-6.52-8.92-10.44-11.87-8.58-5.93-14.29-10.61-19.67-14.61-5.86-4.16-11.55-6.17-23.85-10.9C51.17,70.14,30.09,59.26.05,33.45v8.41C31.92,66.19,50.82,74,62.23,78.39c11.61,4.2,17.11,6.21,22.83,10,5.2,3.7,10.77,8,18.35,14,3.54,3,7.14,6.12,8.78,11.91,1.57,6,1.17,14.74-4.87,34.8h8.41c4.06-21.84,3.48-30.89,1.14-37.07" transform="translate(0 -4)"/><path class="cls-3" d="M.05,16.68C11.46,27.49,24.66,40,35.81,48.78a155.42,155.42,0,0,0,27.39,18C77.36,73.35,83.68,75.26,90,80.29c6.2,4.63,11.74,10.35,21.29,16,4.27,3.16,10.17,5.77,13.87,12,4,6.47,5.7,16.53,7.33,40.83h2.12c-2.38-24.53-4.36-34.74-8.5-41.24-3.86-6.24-9.88-8.78-14.21-12-9.66-5.7-15.18-11.55-21.46-16.28-6.39-5.15-12.83-7-27.28-13.92A157.22,157.22,0,0,1,35.35,46.77c-11.23-9.15-24.41-22-35.3-32.24Z" transform="translate(0 -4)"/></g></g></svg>