<svg id="Слой_1" data-name="Слой 1" xmlns="http://www.w3.org/2000/svg" viewBox="0 0 224.68 149.05"><defs><style>.cls-1{fill:#34aec3;}.cls-2{fill:#00729e;}.cls-3{fill:#34b5d9;}</style></defs><g id="Слой_2" data-name="Слой 2"><g id="Слой_1-2" data-name="Слой 1-2"><path class="cls-1" d="M224.7,146.34V144.9a34.57,34.57,0,0,0-9.5,4.23h3.2a35,35,0,0,1,6.3-2.79Z" transform="translate(-0.06 -0.1)"/><path class="cls-1" d="M224.7,133.62h0v-1.05h0v-1c-28.43,1.12-37.88,5.44-48.13,17.6h5.62c9-10.14,18.54-14.25,42.51-15.51" transform="translate(-0.06 -0.1)"/><path class="cls-1" d="M.1,19.7h0v1.4C27,19.5,37.7,13.9,47.8.1H41.5C32.7,11.5,22.4,16.6.2,18.3v1.4" transform="translate(-0.06 -0.1)"/><path class="cls-2" d="M224.7,139.52v-1.07h0v-1.08c-16.72,1.38-25.6,4.84-32.7,11.74h5.88c6.17-5.22,13.93-8.21,26.82-9.59" transform="translate(-0.06 -0.1)"/><path class="cls-2" d="M.06,35.26v1.25h0C59.68,34.72,59.77,30.31,83.83.1H78.09C57.12,27.61,54.3,32.56.06,34v1.26" transform="translate(-0.06 -0.1)"/><path class="cls-2" d="M.1,26.6v2.8h0v1.4h0C45.2,29.5,53.6,23.4,69.9.1H57.2C44.9,17.9,34.5,23.8.1,25.3v1.3" transform="translate(-0.06 -0.1)"/><path class="cls-2" d="M.1,7.2h0V8.6h0C8.5,7,14.5,4.2,19.3.1H13A38.2,38.2,0,0,1,.1,5.8V7.2" transform="translate(-0.06 -0.1)"/><path class="cls-3" d="M224.7,143v-1c-8.6,1.26-14.38,3.54-19,7.16h2.72C212.53,146.16,217.64,144.17,224.7,143Z" transform="translate(-0.06 -0.1)"/><path class="cls-3" d="M224.74,126.64h0v-1.26h0v-1.26h0v-2.53h0v-1.26c-46.46,1.17-53.81,6.58-70.66,28.82h15.3c11.9-15.94,22-21.25,55.36-22.51" transform="translate(-0.06 -0.1)"/><path class="cls-3" d="M.1,23.9h0C32,22.4,42.5,16.5,54.1.1H50.9C40.1,15.2,29.4,20.9.1,22.5v1.4" transform="translate(-0.06 -0.1)"/><path class="cls-3" d="M.1.2V1.6h0V3h0V4.4h0A38.29,38.29,0,0,0,9.8.1H.1V.2" transform="translate(-0.06 -0.1)"/></g></g></svg>