<svg id="Слой_1" data-name="Слой 1" xmlns="http://www.w3.org/2000/svg" xmlns:xlink="http://www.w3.org/1999/xlink" viewBox="0 0 841.81 595.28"><defs><style>.cls-1{fill:none;}.cls-2{clip-path:url(#clip-path);}.cls-3{fill:#34b5d9;}.cls-3,.cls-4,.cls-5{fill-rule:evenodd;}.cls-4{fill:#34aec3;}.cls-5{fill:#07305b;}</style><clipPath id="clip-path" transform="translate(0 0)"><rect class="cls-1" width="841.89" height="595.28"/></clipPath></defs><title>полоса</title><g class="cls-2"><path class="cls-3" d="M0,577.41c7.12,5,13,10.87,16.91,17.87h8C20.37,584.25,11.48,575.72,0,569Z" transform="translate(0 0)"/><path class="cls-4" d="M0,543.91c27.85,10.65,47.4,25.94,48.64,51.37h8C58.17,564.19,34.48,547.13,0,535.45v8.46H0" transform="translate(0 0)"/><path class="cls-5" d="M84.71,527C66.43,512,40.54,501.36,0,493.56V510.4c57.12,14.8,94,34.93,80.36,84.88h16c15.33-33,5.67-52.88-11.6-68.24" transform="translate(0 0)"/><path class="cls-3" d="M113.45,508.06C90.11,490.5,58.7,478.19,0,468.43v16.84c46.17,8.34,74.1,19.52,94.05,35.49,18.62,16.34,29.26,37.48,10.11,74.52H120.1c27.66-45.65,14.54-69.06-6.65-87.22" transform="translate(0 0)"/><path class="cls-4" d="M161.91,477.71C130.46,457.52,95.65,442.5,0,426.55v16.84c79.91,12.91,114.36,26.86,142.63,46.23,24.42,20.37,42.66,46.14,1.18,105.66h15.94c51.08-69.41,28.29-96.07,2.16-117.57" transform="translate(0 0)"/><path class="cls-5" d="M0,409.88c112.13,19.82,145.87,35.83,180.32,56.53,27.46,22.33,55.63,49.34-4.79,128.87h8c65-84.75,33.78-111.76,5.79-134.4C153.42,440,120.75,423.54,0,401.42v8.46" transform="translate(0 0)"/><path class="cls-3" d="M258.42,487.8a87,87,0,0,0-35.81-47.7c-16.61-12-37.92-21.32-70.19-31-32.88-10-76.71-20.37-152.42-41.16v16.84c134.09,32.4,171.4,39.84,205.81,65.76,15.9,11.9,29.44,25.71,34.83,45.58,4.39,20.51.64,47.09-41.31,99.18h15.94c46.88-59.59,47.92-85.84,43.15-107.48m-73.68-59.63.95.43-.95-.43" transform="translate(0 0)"/><path class="cls-4" d="M320,456.11C306.93,435,292.51,416,272.87,405.36c-18-12.37-40.46-22-76.82-33.51-37.7-12.47-89.25-26.8-196-70.94v25.21c95.94,34.19,145.26,47.1,181.54,58.64,35.23,10.89,57.44,20.42,75,32.74,18.78,11.1,32.44,28.77,42.7,49.94,7.8,23.27,12.21,50.05-44.4,127.84h23.88C338.81,506.08,330.08,480,320,456.11" transform="translate(0 0)"/><path class="cls-5" d="M0,292.62c110,47.67,162.18,62.45,200.27,75.22,36.66,11.68,59.26,21.35,77.33,33.74,19.9,10.51,34.57,29.94,48.59,51,10.91,24.07,21.16,49.74-39.62,142.73h8C355.82,498.43,344,473.22,332.22,449c-15-20.93-29.93-40.85-50.11-51.19-18.19-12.4-40.88-22.12-77.81-34-38.45-13.07-91.14-28.3-204.3-79.67Z" transform="translate(0 0)"/><path class="cls-3" d="M0,267.49c118.67,58.92,172.31,75,211.4,88.7,37.42,12.22,60.29,22,78.72,34.49,20.73,10,36.12,31,53.11,51.59,13.46,24.46,28.52,48.55-32.87,153h8C379.45,487,362.75,463.54,348.41,439c-18-20.45-33.63-42-54.63-51.81-18.57-12.5-41.53-22.36-79.18-34.76C175.21,338.42,121.13,321.87,0,259Z" transform="translate(0 0)"/><path class="cls-4" d="M419.24,458.7c-5.49-23-18.58-35.7-31.39-47.53C360,387.4,339,370.27,319.34,355.72c-21.16-15-41.83-23-85.19-39.32C191.35,299.22,121.57,270.1,0,175.26V234c121.38,72.73,181.88,92.13,222.83,107.51,40.34,14,60.61,22.19,80.62,35.75,19.65,9.44,37.18,32.72,58.88,52.49,17.85,24.71,39.87,45.93-20.25,165.55h55.6c24.39-78.22,26.77-112.57,21.56-136.58" transform="translate(0 0)"/><path class="cls-5" d="M441.63,447.24c-9-23.52-24.65-35.62-39.48-47.4-32.41-23.64-54-42.35-74.34-58.29-22.15-16.62-43.68-24.64-90.15-43.54C193.25,279.88,113.56,236.46,0,133.38V167c120.48,97.12,192,128.46,235.07,145.85,43.9,16.76,64.69,24.77,86.29,40.08C341,367.66,362.11,385,390.75,408.75c13.37,11.9,27,24.45,33.19,47.57,5.93,24.15,4.43,58.86-18.41,139h31.81c15.34-87.22,13.14-123.34,4.29-148" transform="translate(0 0)"/><path class="cls-3" d="M0,125.09C111.28,228.68,193.26,276,238,294.26c47.2,19.55,68.92,27.61,91.68,44.61,20.32,16.24,41.91,35.28,74.89,58.85C420,409.58,436,421.56,445.71,445.16c9.55,24.83,12.69,61.28-.52,150.12h8c9.43-89.95,7.79-127-2.81-152-10.14-23.83-29.25-35.68-44-47.83-32.54-22.89-53.62-43-75.5-59.39-22.56-17.38-44.57-25.4-92.57-45.68C193.15,271.92,108.74,220.3,0,116.63Z" transform="translate(0 0)"/><path class="cls-4" d="M462.05,437.51c-12.11-24.24-32.91-35.41-48.41-47.77-34.43-22.82-55.48-44.22-78.12-61.65-23.22-18.66-46.09-26.57-96.68-49.43-24.76-12.3-57.56-30.24-99.16-62.44C98.53,184.89,48.58,139.3,0,91.5v16.84C51.83,158,101.65,200.52,142.14,229.51a572.13,572.13,0,0,0,96.43,57.06c48.8,21.06,71,29.07,93.81,46.87,22.12,16.73,43.24,37.23,76.45,60.09,15,12.21,34.69,23.84,45.49,47.8,11.33,25.14,13.78,62.62,6.73,154H477c2-93.89-2.15-132.37-14.94-157.77" transform="translate(0 0)"/><path class="cls-5" d="M0,66.46c43.16,43.13,93.06,93,135.19,128.15,42.69,36.33,77.61,57.94,103.56,71.87,53.52,26.21,77.41,33.85,101.33,53.91,23.45,18.51,44.4,41.34,80.48,64.1,16.17,12.62,38.46,23,52.46,47.77,14.92,25.82,21.56,66,27.68,163h8c-9-97.94-16.47-138.71-32.09-164.68-14.62-24.93-37.36-35.07-53.72-47.8-36.54-22.76-57.39-46.12-81.13-65-24.19-20.55-48.52-28-103.14-55.56-26.39-14.54-62.12-37.69-105.17-75.5C91,150.22,41.19,99.05,0,58Z" transform="translate(0 0)"/><path class="cls-3" d="M0,49.7c39.2,38.8,88.85,91.13,131.66,129,43.4,39.26,80,64.1,106.76,79.27,55.7,29,80.41,36.28,104.84,57.34,24,19.25,44.86,43.11,81.88,65.85,16.56,12.84,39.73,22.7,55,47.84,16.3,26.12,24.66,67.52,36.46,166.24h8c-14.73-99.41-24-141.49-41-167.78-15.84-25.37-39.41-34.94-56.13-47.9-37.43-22.75-58.12-47.18-82.48-66.8-24.71-21.56-49.93-28.59-106.82-59.18-27.25-15.84-64.71-42.6-108.47-83.37C86.56,130.9,37.1,77.54,0,41.24Z" transform="translate(0 0)"/><path class="cls-4" d="M0,24.57c32.75,30.9,81.69,85.67,125.53,127.94,44.46,43.72,83.82,74.93,112,92.18,59.28,34.18,85.44,40.66,110.71,63.28,25,20.36,45.58,45.88,83.85,68.59,17.06,13.22,41.36,22.21,58.39,48.07,18.33,26.65,29.38,70.18,49.93,170.65h8c-23.52-100.86-35.51-145.17-54.51-172-17.62-26.15-42.25-34.84-59.46-48.2-38.59-22.72-59-48.86-84.36-69.59-25.61-23.14-52.38-29.2-113-65.47-28.61-18-69-51.87-113.85-97C79,99.2,30.42,44.13,0,16.11Z" transform="translate(0 0)"/><path class="cls-5" d="M48.11,0c41.5,37.48,89.3,98.74,129.24,142.36,40.53,45.59,73.22,73.52,98.06,89.71C327.34,262.38,352,272.89,377,298.64c25,23.75,46.33,50.16,86.19,71.38,18.3,13.57,42.28,21.1,63.45,51.42,22.59,29.79,42.37,82.36,85.12,173.84h8c-44.55-89.58-65.52-143.21-88.57-173.49-21.68-31-45.45-38.59-63.88-52.16-39.9-21.05-61.28-47.22-86.2-71.29-24.88-25.91-49.25-37.28-99.87-66.32C257,216.22,225.54,190,185.94,144.85,146.88,101.78,99.64,39.89,56.12,0h-8" transform="translate(0 0)"/><path class="cls-3" d="M576.06,428.49c-27.72-37.15-50.95-48.46-70.83-62-41.44-20.95-63.64-42.81-88.19-68.86-24.53-26.38-47.15-45.44-90.15-67.53-20.8-13.83-45.09-28.46-76.18-68.28C219.38,124.11,181.26,61.24,127.5,0H87.77c49.77,49.37,93.75,112.66,129.28,153.4,35.79,42.95,63.15,63.37,85.54,78,46.33,25.11,69.61,40.11,94.21,66.47,24.68,25.14,46.55,49.72,87,70.33,19,13.5,42.2,22.1,66.24,55.76,25.14,32.37,51.14,89.81,101.39,171.31h39.74c-53.87-70.38-86.71-131.51-115.07-166.79" transform="translate(0 0)"/><path class="cls-4" d="M593.39,432.19c-30.27-39.2-54.21-52.95-74.75-66.7-42.54-21.76-65-41.56-89.51-67.9-24.55-26.15-46.9-47.36-88.66-68.48-20.09-13.6-43.48-25.59-72-63.38C239.48,129.88,205.37,68.25,151.29,0H135.35c54,63.56,90.86,126.1,121.4,163.18C287,202.33,310.88,216,331.41,229.77c42.5,21.73,64.95,41.58,89.48,67.91,24.54,26.16,46.89,47.32,88.68,68.46,20.1,13.61,43.51,25.65,72.05,63.48,29.07,35.89,63.27,97.56,117.36,165.66h15.94c-54-63.41-90.94-126-121.53-163.09" transform="translate(0 0)"/><path class="cls-5" d="M167.08,0c53.44,72.81,84.81,133.27,112.43,167.92,26.87,36.41,50,47,69.65,60.53,41.15,20.79,63.27,43.31,87.84,69.21,24.53,26.42,47.27,44.66,90.84,67.23,21.08,13.95,45.85,29.67,77.92,70.18,32.18,38.35,71.67,101.49,124.94,160.21h8C686.08,539,645.36,475.64,612.33,436.67c-33-41.16-58.3-58-79.67-72.07-44.14-23.12-66.93-40.6-91.46-67.05-24.6-25.73-46.71-48.8-87.65-69.45C334,214.59,311,204.61,284.88,168.91,257.93,134.86,228,75.08,175.09,0h-8" transform="translate(0 0)"/><path class="cls-3" d="M182.94,0C235.07,77.28,263.7,136.32,290,169.8c25.37,35,48.42,44.46,67.74,58C398.45,248.38,420.42,272,445,297.6c24.56,26.43,47.56,43,92.4,66.74,21.7,14.25,47.62,32.21,81.56,74,33.85,39.57,75.74,103,127.57,156.94h8c-50.84-51.59-93.85-115-128.57-155.15-34.9-42.4-61.52-61.61-83.56-76.05-45.55-24.4-68.66-40.21-93.23-66.62-24.65-25.35-46.6-49.48-87.15-70.06-19.17-13.5-42.28-22.47-66.94-56.78C269.43,137.72,242.18,79.49,191,0h-8" transform="translate(0 0)"/><path class="cls-4" d="M198.8,0C249,81.62,274.91,139,300,171.35c24,33.62,47.17,42.2,66.17,55.71,40.36,20.63,62.16,45.28,86.84,70.42,24.61,26.34,48,41.24,94.38,66.38C569.85,378.51,597.25,399,633.1,442c35.59,40.78,79.61,104.06,129.32,153.3h8C722.06,548.43,677.07,485.36,640.59,444c-36.81-43.56-65.1-65.43-87.94-80.33-47.3-26-70.81-40.07-95.45-66.35-24.74-24.89-46.51-49.94-86.77-70.61-18.86-13.51-42.16-21.75-65.51-54.68-24.55-31.79-49.15-88.27-98.11-172h-8" transform="translate(0 0)"/><path class="cls-5" d="M222.59,0c46.1,87.77,68.19,142.33,91.69,173.08,22.18,31.59,45.78,39.36,64.34,52.9,40,20.91,61.49,46.77,86.33,71.13,24.8,26,48.88,38.27,98.35,66.24,23.78,15.47,54.12,40.27,92.83,84.91,38.24,42.53,84.86,104.9,130.09,147h8c-43.38-39.71-90.66-101.56-129.79-144.67-39.66-45.14-71.17-71.53-95.47-87.36-50.68-29.14-75-40.5-99.88-66.41-24.94-24-46.37-50.19-86.31-71.24-18.43-13.55-42.23-21.17-63.87-52.09C295.89,143.27,275,89.72,230.6,0h-8" transform="translate(0 0)"/><path class="cls-3" d="M720.63,467.94c-44.81-47.48-85.47-85-114-103.87-60.87-38.66-88-44.7-114-69.23-25.86-21.84-46.3-49.07-85.71-71.48-17.64-13.64-42.65-21.53-61.75-48.81-20.59-27.63-35.26-74.66-67-174.55H254.32C293,95.13,310.5,145.49,332.21,174.34c20.23,29,44.63,36.56,62.65,50.17,39.63,21.67,60.56,48.59,85.84,71.62,25.3,25.32,50.87,33.91,106,67.16C612.9,380.41,648.5,412,690.87,458.44c41.72,44.71,90.21,104.31,127.07,136.84h23.87c-28.74-25.09-77-81.19-121.18-127.34" transform="translate(0 0)"/></g></svg>